
<svg width="44" height="40" viewBox="0 0 44 40" fill="none" xmlns="http://www.w3.org/2000/svg">
<path d="M11.1613 33.696L20.6053 24.256L30.0427 33.696H11.1613ZM6.90799 6.30402H30.0427L6.90932 29.44L6.90799 6.30402ZM24.8573 20L42.8053 2.05335C42.9504 1.90908 43.0492 1.72485 43.0891 1.52417C43.129 1.3235 43.1082 1.11548 43.0293 0.926685C42.9527 0.737163 42.821 0.574926 42.6514 0.460865C42.4817 0.346804 42.2818 0.286142 42.0773 0.286686H1.92399C1.64992 0.287391 1.38729 0.396667 1.19362 0.59059C0.999946 0.784513 0.891007 1.04728 0.890656 1.32135V38.6774C0.890656 39.248 1.35732 39.7134 1.92399 39.7134H42.0773C42.2817 39.7135 42.4814 39.6527 42.651 39.5387C42.8206 39.4247 42.9524 39.2627 43.0293 39.0734C43.1082 38.8846 43.129 38.6765 43.0891 38.4759C43.0492 38.2752 42.9504 38.091 42.8053 37.9467L24.8573 20Z" fill="#24282A"/>
</svg>
